# xmcd
#
# Track frame offsets: 
#        150
#        19913
#        50315
#        79988
#        100481
#        135067
#        160969
#        189399
#        224072
#        252929
#        276849
#        300520
#
# Disc length: 4344 seconds
#
# Revision: 2
# Processed by: cddbd v1.5.2PL0 Copyright (c) Steve Scherf et al.
# Submitted via: ExactAudioCopy v1.3
#
DISCID=a310f60c
DTITLE=Andrea Motis - Live at Jamboree
DYEAR=2013
DGENRE=Jazz
TTITLE0=Exactly like you
TTITLE1=Meditaçao
TTITLE2=I fall in love too easily
TTITLE3=Sun showers
TTITLE4=Someday my prince will come
TTITLE5=Moody's mood for love
TTITLE6=Chega de saudace
TTITLE7=Summertime
TTITLE8=Lullaby of birdland
TTITLE9=Corcovado
TTITLE10=All too soon
TTITLE11=My baby just cares for me
EXTD=YEAR: 2013
EXTT0=
EXTT1=
EXTT2=
EXTT3=
EXTT4=
EXTT5=
EXTT6=
EXTT7=
EXTT8=
EXTT9=
EXTT10=
EXTT11=
PLAYORDER=
